<svg id="Layer_1" data-name="Layer 1" xmlns="http://www.w3.org/2000/svg" xmlns:xlink="http://www.w3.org/1999/xlink" viewBox="0 0 450.18 123.35"><defs><style>.cls-1{fill:none;}.cls-2{clip-path:url(#clip-path);}.cls-3{fill:url(#linear-gradient);}.cls-4{clip-path:url(#clip-path-2);}.cls-5{fill:url(#linear-gradient-2);}.cls-6{clip-path:url(#clip-path-3);}.cls-7{fill:url(#linear-gradient-3);}.cls-8{clip-path:url(#clip-path-4);}.cls-9{fill:url(#linear-gradient-4);}.cls-10{clip-path:url(#clip-path-5);}.cls-11{fill:url(#linear-gradient-5);}.cls-12{clip-path:url(#clip-path-6);}.cls-13{fill:url(#linear-gradient-6);}.cls-14{clip-path:url(#clip-path-7);}.cls-15{fill:url(#linear-gradient-7);}.cls-16{clip-path:url(#clip-path-8);}.cls-17{fill:url(#linear-gradient-8);}.cls-18{clip-path:url(#clip-path-9);}.cls-19{fill:url(#linear-gradient-9);}.cls-20{clip-path:url(#clip-path-10);}.cls-21{fill:url(#linear-gradient-10);}.cls-22{clip-path:url(#clip-path-11);}.cls-23{fill:url(#linear-gradient-11);}.cls-24{clip-path:url(#clip-path-12);}.cls-25{fill:url(#linear-gradient-12);}.cls-26{clip-path:url(#clip-path-13);}.cls-27{fill:url(#linear-gradient-13);}.cls-28{font-size:17px;font-family:OpenSans-SemiBold, Open Sans;font-weight:600;letter-spacing:0.05em;}</style><clipPath id="clip-path" transform="translate(0.68 9.12)"><path class="cls-1" d="M12.12,25.57c0,9.79,7.45,13.44,15.05,15.56s10.6,3.36,10.6,6.5c0,2-1.39,4.17-6.94,4.17-5.78,0-8.92-2.85-10.75-7.09L10,50.56c2.85,7.52,9.72,12.64,20.46,12.64,11.11,0,19-5.85,19-15.71C49.46,36.67,40.77,34,33,31.63c-8-2.41-9.21-4-9.21-6.36,0-2,1.83-3.87,5.48-3.87,4.68,0,7.09,2.27,8.84,5.92L48,21.55C44.27,14,37.7,10,29.29,10c-8.84,0-17.17,5.7-17.17,15.57"/></clipPath><linearGradient id="linear-gradient" y1="105.11" x2="1" y2="105.11" gradientTransform="matrix(0, 437.05, 437.05, 0, -45910, 12.57)" gradientUnits="userSpaceOnUse"><stop offset="0" stop-color="#5433ff"/><stop offset="0.5" stop-color="#20bdff"/><stop offset="1" stop-color="#a5fecb"/></linearGradient><clipPath id="clip-path-2" transform="translate(0.68 9.12)"><path class="cls-1" d="M115,22h8.77c3.21,0,5.84,2.84,5.84,6.57s-2.63,6.58-5.84,6.58H115ZM103.28,11V62.18H115V45.37h5.55l9.65,16.81h12.57L131.85,43.4a16.85,16.85,0,0,0,9.42-14.84A17.49,17.49,0,0,0,123.74,11Z"/></clipPath><linearGradient id="linear-gradient-2" x1="0" y1="105.12" x2="1" y2="105.12" gradientTransform="matrix(0, 437.05, 437.05, 0, -45818.45, -78.73)" xlink:href="#linear-gradient"/><clipPath id="clip-path-3" transform="translate(0.68 9.12)"><polygon class="cls-1" points="178.54 11.02 167.21 48.66 155.89 11.02 143.1 11.02 159.76 62.18 174.67 62.18 191.33 11.02 178.54 11.02"/></clipPath><linearGradient id="linear-gradient-3" x1="0" y1="105.11" x2="1" y2="105.11" gradientTransform="matrix(0, 437.05, 437.05, 0, -45770.77, -121.99)" xlink:href="#linear-gradient"/><clipPath id="clip-path-4" transform="translate(0.68 9.12)"><rect class="cls-1" x="195.71" y="11.02" width="11.69" height="51.15"/></clipPath><linearGradient id="linear-gradient-4" x1="0" y1="105.11" x2="1" y2="105.11" gradientTransform="matrix(0, 437.05, 437.05, 0, -45738.14, -155.61)" xlink:href="#linear-gradient"/><clipPath id="clip-path-5" transform="translate(0.68 9.12)"><path class="cls-1" d="M214,21.84l10.08,5.84c2.27-3.94,6.65-6.28,11.84-6.28,9.06,0,14.91,6.07,14.91,15.2S245,51.8,235.9,51.8c-5.19,0-9.65-2.34-11.84-6.29L214,51.36A25.31,25.31,0,0,0,235.9,63.2c15.42,0,26.6-11.55,26.6-26.6S251.32,10,235.9,10A25.49,25.49,0,0,0,214,21.84"/></clipPath><linearGradient id="linear-gradient-5" x1="0" y1="105.11" x2="1" y2="105.11" gradientTransform="matrix(0, 437.05, 437.05, 0, -45701.92, -191.51)" xlink:href="#linear-gradient"/><clipPath id="clip-path-6" transform="translate(0.68 9.12)"><rect class="cls-1" x="54.94" y="11.02" width="41.4" height="11.25"/></clipPath><linearGradient id="linear-gradient-6" x1="0" y1="105.11" x2="1" y2="105.11" gradientTransform="matrix(0, 437.05, 437.05, 0, -45864.06, -48.22)" xlink:href="#linear-gradient"/><clipPath id="clip-path-7" transform="translate(0.68 9.12)"><rect class="cls-1" x="54.94" y="30.64" width="41.4" height="11.25"/></clipPath><linearGradient id="linear-gradient-7" x1="0" y1="105.11" x2="1" y2="105.11" gradientTransform="matrix(0, 437.05, 437.05, 0, -45864.06, -32.64)" xlink:href="#linear-gradient"/><clipPath id="clip-path-8" transform="translate(0.68 9.12)"><rect class="cls-1" x="54.94" y="50.25" width="41.4" height="11.25"/></clipPath><linearGradient id="linear-gradient-8" x1="0" y1="105.11" x2="1" y2="105.11" gradientTransform="matrix(0, 437.05, 437.05, 0, -45864.06, -17.05)" xlink:href="#linear-gradient"/><clipPath id="clip-path-9" transform="translate(0.68 9.12)"><rect class="cls-1" x="268.07" y="11.02" width="40.68" height="11.25"/></clipPath><linearGradient id="linear-gradient-9" x1="0" y1="105.11" x2="1" y2="105.11" gradientTransform="matrix(0, 437.05, 437.05, 0, -45651.29, -256.47)" xlink:href="#linear-gradient"/><clipPath id="clip-path-10" transform="translate(0.68 9.12)"><rect class="cls-1" x="268.07" y="30.64" width="41.4" height="11.25"/></clipPath><linearGradient id="linear-gradient-10" x1="0" y1="105.11" x2="1" y2="105.11" gradientTransform="matrix(0, 437.05, 437.05, 0, -45650.93, -241.23)" xlink:href="#linear-gradient"/><clipPath id="clip-path-11" transform="translate(0.68 9.12)"><rect class="cls-1" x="268.07" y="50.25" width="41.4" height="11.25"/></clipPath><linearGradient id="linear-gradient-11" x1="0" y1="105.11" x2="1" y2="105.11" gradientTransform="matrix(0, 437.05, 437.05, 0, -45650.93, -225.64)" xlink:href="#linear-gradient"/><clipPath id="clip-path-12" transform="translate(0.68 9.12)"><path class="cls-1" d="M401.45,10.16,380.52,47l0,0a30.33,30.33,0,0,0-20.6-12.44l16.8-24.42H355.23l-25,37.9a29.08,29.08,0,0,0-4.6,13.22c0,.14,0,.29,0,.43,0,.33-.06.67-.08,1,0,.63-.07,1.27-.07,1.92a28.54,28.54,0,0,0,6.43,18.66,30.31,30.31,0,0,0,48.4-.81,26.86,26.86,0,0,0,3.35-5.62H356.38a12.25,12.25,0,0,1-12.16-10.93,11.2,11.2,0,0,1-.07-1.3,11.09,11.09,0,0,1,.07-1.3A12.23,12.23,0,0,1,356.38,52.4h41.16l24-42.24Z"/></clipPath><linearGradient id="linear-gradient-12" x1="0" y1="105.11" x2="1" y2="105.11" gradientTransform="matrix(0, 437.05, 437.05, 0, -45563.41, -311.21)" xlink:href="#linear-gradient"/><clipPath id="clip-path-13" transform="translate(0.68 9.12)"><path class="cls-1" d="M412.53,44V56H356.38a8.63,8.63,0,1,0,0,17.26h56.15V93.33h18.89V73.26h8.17V56h-8.17V44Z"/></clipPath><linearGradient id="linear-gradient-13" x1="0" y1="105.1" x2="1" y2="105.1" gradientTransform="matrix(0, 437.05, 437.05, 0, -45540.22, -318.16)" xlink:href="#linear-gradient"/></defs><title>Service64 Logo colored</title><g class="cls-2"><rect class="cls-3" x="-0.35" y="11.83" width="60.16" height="49.53" transform="translate(-11.51 67.31) rotate(-78.16)"/></g><g class="cls-4"><rect class="cls-5" x="93.93" y="12.04" width="58.16" height="49.12" transform="translate(62.63 158.6) rotate(-78.16)"/></g><g class="cls-6"><rect class="cls-7" x="137.23" y="7.75" width="59.96" height="57.7" transform="translate(97.77 201.87) rotate(-78.16)"/></g><g class="cls-8"><rect class="cls-9" x="175.32" y="25.63" width="52.46" height="21.94" transform="translate(125.06 235.48) rotate(-78.16)"/></g><g class="cls-10"><rect class="cls-11" x="207.23" y="7.4" width="62.02" height="58.4" transform="translate(154.22 271.38) rotate(-78.16)"/></g><g class="cls-12"><rect class="cls-13" x="65.88" y="-4.76" width="19.51" height="42.82" transform="translate(44.5 96.38) rotate(-78.16)"/></g><g class="cls-14"><rect class="cls-15" x="65.88" y="14.85" width="19.51" height="42.82" transform="translate(25.31 111.97) rotate(-78.16)"/></g><g class="cls-16"><rect class="cls-17" x="65.88" y="34.46" width="19.51" height="42.82" transform="translate(6.11 127.56) rotate(-78.16)"/></g><g class="cls-18"><rect class="cls-19" x="278.73" y="-4.41" width="19.36" height="42.12" transform="translate(213.62 304.63) rotate(-78.16)"/></g><g class="cls-20"><rect class="cls-21" x="279.01" y="14.85" width="19.51" height="42.82" transform="translate(194.71 320.57) rotate(-78.16)"/></g><g class="cls-22"><rect class="cls-23" x="279.01" y="34.46" width="19.51" height="42.82" transform="translate(175.52 336.16) rotate(-78.16)"/></g><g class="cls-24"><rect class="cls-25" x="322.16" y="-3.13" width="102.69" height="111.37" transform="translate(246.12 416.45) rotate(-78.16)"/></g><g class="cls-26"><rect class="cls-27" x="360.09" y="18.65" width="67.14" height="100.01" transform="translate(246.38 448.98) rotate(-78.16)"/></g><text class="cls-28" transform="translate(15.97 98.7)">SMART PEOPLE, GREAT SOLUTION</text></svg>