<?xml version="1.0" encoding="utf-8"?>
<!-- Generator: Adobe Illustrator 23.1.1, SVG Export Plug-In . SVG Version: 6.00 Build 0)  -->
<svg version="1.1" id="Layer_1" xmlns="http://www.w3.org/2000/svg" xmlns:xlink="http://www.w3.org/1999/xlink" x="0px" y="0px"
	 viewBox="0 0 461.1 105.1" style="enable-background:new 0 0 461.1 105.1;" xml:space="preserve">
<style type="text/css">
	.st0{clip-path:url(#SVGID_4_);fill:#FFFFFF;}
	.st1{clip-path:url(#SVGID_6_);fill:#FFFFFF;}
	.st2{clip-path:url(#SVGID_8_);fill:#FFFFFF;}
	.st3{clip-path:url(#SVGID_10_);fill:#FFFFFF;}
	.st4{clip-path:url(#SVGID_12_);fill:#FFFFFF;}
	.st5{clip-path:url(#SVGID_14_);fill:#FFFFFF;}
	.st6{clip-path:url(#SVGID_16_);fill:#FFFFFF;}
	.st7{clip-path:url(#SVGID_18_);fill:#FFFFFF;}
	.st8{clip-path:url(#SVGID_20_);fill:#FFFFFF;}
	.st9{clip-path:url(#SVGID_22_);fill:#FFFFFF;}
	.st10{clip-path:url(#SVGID_24_);fill:#FFFFFF;}
	.st11{clip-path:url(#SVGID_26_);fill:#FFFFFF;}
	.st12{clip-path:url(#SVGID_28_);fill:#FFFFFF;}
	.st13{clip-path:url(#SVGID_30_);fill:#FFFFFF;}
	.st14{clip-path:url(#SVGID_32_);fill:#FFFFFF;}
	.st15{fill:#FFFFFF;}
</style>
<g>
	<defs>
		<rect id="SVGID_1_" x="11.5" width="449.6" height="105.1"/>
	</defs>
	<clipPath id="SVGID_2_">
		<use xlink:href="#SVGID_1_"  style="overflow:visible;"/>
	</clipPath>
</g>
<g>
	<defs>
		<path id="SVGID_3_" d="M23.6,25.6c0,9.8,7.5,13.4,15.1,15.6c7.7,2.1,10.6,3.4,10.6,6.5c0,2-1.4,4.2-6.9,4.2
			c-5.8,0-8.9-2.9-10.7-7.1l-10.1,5.8c2.8,7.5,9.7,12.6,20.5,12.6c11.1,0,19-5.8,19-15.7c0-10.8-8.7-13.5-16.4-15.9
			c-8-2.4-9.2-4-9.2-6.4c0-2,1.8-3.9,5.5-3.9c4.7,0,7.1,2.3,8.8,5.9l9.9-5.8C55.8,14,49.2,10,40.8,10C31.9,10,23.6,15.7,23.6,25.6"
			/>
	</defs>
	<use xlink:href="#SVGID_3_"  style="overflow:visible;fill:#FFFFFF;"/>
	<clipPath id="SVGID_4_">
		<use xlink:href="#SVGID_3_"  style="overflow:visible;"/>
	</clipPath>
	
		<rect x="11.1" y="11.8" transform="matrix(0.2052 -0.9787 0.9787 0.2052 -3.0541 69.4393)" class="st0" width="60.2" height="49.5"/>
</g>
<g>
	<defs>
		<path id="SVGID_5_" d="M126.5,22h8.8c3.2,0,5.8,2.8,5.8,6.6c0,3.7-2.6,6.6-5.8,6.6h-8.8V22z M114.8,11v51.2h11.7V45.4h5.6
			l9.6,16.8h12.6l-10.9-18.8c5.6-2.9,9.4-8.5,9.4-14.8c0-9.7-7.8-17.5-17.5-17.5H114.8z"/>
	</defs>
	<use xlink:href="#SVGID_5_"  style="overflow:visible;fill:#FFFFFF;"/>
	<clipPath id="SVGID_6_">
		<use xlink:href="#SVGID_5_"  style="overflow:visible;"/>
	</clipPath>
	
		<rect x="105.4" y="12" transform="matrix(0.2052 -0.9787 0.9787 0.2052 71.0838 160.7306)" class="st1" width="58.2" height="49.1"/>
</g>
<g>
	<defs>
		<polygon id="SVGID_7_" points="190,11 178.7,48.7 167.4,11 154.6,11 171.3,62.2 186.2,62.2 202.8,11 		"/>
	</defs>
	<use xlink:href="#SVGID_7_"  style="overflow:visible;fill:#FFFFFF;"/>
	<clipPath id="SVGID_8_">
		<use xlink:href="#SVGID_7_"  style="overflow:visible;"/>
	</clipPath>
	
		<rect x="148.7" y="7.8" transform="matrix(0.2052 -0.9787 0.9787 0.2052 106.2216 203.9977)" class="st2" width="60" height="57.7"/>
</g>
<g>
	<defs>
		<rect id="SVGID_9_" x="207.2" y="11" width="11.7" height="51.2"/>
	</defs>
	<use xlink:href="#SVGID_9_"  style="overflow:visible;fill:#FFFFFF;"/>
	<clipPath id="SVGID_10_">
		<use xlink:href="#SVGID_9_"  style="overflow:visible;"/>
	</clipPath>
	
		<rect x="186.8" y="25.6" transform="matrix(0.2052 -0.9787 0.9787 0.2052 133.5178 237.61)" class="st3" width="52.5" height="21.9"/>
</g>
<g>
	<defs>
		<path id="SVGID_11_" d="M225.5,21.8l10.1,5.8c2.3-3.9,6.7-6.3,11.8-6.3c9.1,0,14.9,6.1,14.9,15.2s-5.8,15.2-14.9,15.2
			c-5.2,0-9.6-2.3-11.8-6.3l-10.1,5.8c4.4,7.2,12.6,11.8,21.9,11.8c15.4,0,26.6-11.5,26.6-26.6c0-15.1-11.2-26.6-26.6-26.6
			C238.1,10,229.9,14.6,225.5,21.8"/>
	</defs>
	<use xlink:href="#SVGID_11_"  style="overflow:visible;fill:#FFFFFF;"/>
	<clipPath id="SVGID_12_">
		<use xlink:href="#SVGID_11_"  style="overflow:visible;"/>
	</clipPath>
	<rect x="220.5" y="5.6" transform="matrix(0.9787 -0.2052 0.2052 0.9787 -2.1966 52.0144)" class="st4" width="58.4" height="62"/>
</g>
<g>
	<defs>
		<rect id="SVGID_13_" x="66.4" y="11" width="41.4" height="11.3"/>
	</defs>
	<use xlink:href="#SVGID_13_"  style="overflow:visible;fill:#FFFFFF;"/>
	<clipPath id="SVGID_14_">
		<use xlink:href="#SVGID_13_"  style="overflow:visible;"/>
	</clipPath>
	
		<rect x="77.4" y="-4.8" transform="matrix(0.2052 -0.9787 0.9787 0.2052 52.9591 98.5136)" class="st5" width="19.5" height="42.8"/>
</g>
<g>
	<defs>
		<rect id="SVGID_15_" x="66.4" y="30.6" width="41.4" height="11.3"/>
	</defs>
	<use xlink:href="#SVGID_15_"  style="overflow:visible;fill:#FFFFFF;"/>
	<clipPath id="SVGID_16_">
		<use xlink:href="#SVGID_15_"  style="overflow:visible;"/>
	</clipPath>
	
		<rect x="77.4" y="14.9" transform="matrix(0.2052 -0.9787 0.9787 0.2052 33.7633 114.1027)" class="st6" width="19.5" height="42.8"/>
</g>
<g>
	<defs>
		<rect id="SVGID_17_" x="66.4" y="50.2" width="41.4" height="11.3"/>
	</defs>
	<use xlink:href="#SVGID_17_"  style="overflow:visible;fill:#FFFFFF;"/>
	<clipPath id="SVGID_18_">
		<use xlink:href="#SVGID_17_"  style="overflow:visible;"/>
	</clipPath>
	
		<rect x="77.4" y="34.5" transform="matrix(0.2052 -0.9787 0.9787 0.2052 14.5685 129.6911)" class="st7" width="19.5" height="42.8"/>
</g>
<g>
	<g>
		<defs>
			<rect id="SVGID_19_" x="66.4" y="30.7" width="11.3" height="30.6"/>
		</defs>
		<use xlink:href="#SVGID_19_"  style="overflow:visible;fill:#FFFFFF;"/>
		<clipPath id="SVGID_20_">
			<use xlink:href="#SVGID_19_"  style="overflow:visible;"/>
		</clipPath>
		<polygon class="st8" points="58.1,60 66.9,29 86.1,32 77.2,62.9 		"/>
	</g>
	<g>
		<defs>
			<rect id="SVGID_21_" x="279.6" y="30.7" width="11.3" height="30.6"/>
		</defs>
		<use xlink:href="#SVGID_21_"  style="overflow:visible;fill:#FFFFFF;"/>
		<clipPath id="SVGID_22_">
			<use xlink:href="#SVGID_21_"  style="overflow:visible;"/>
		</clipPath>
		<polygon class="st9" points="271.2,60 280,29 299.2,32 290.4,62.9 		"/>
	</g>
	<g>
		<defs>
			<rect id="SVGID_23_" x="279.6" y="11" width="40.7" height="11.3"/>
		</defs>
		<use xlink:href="#SVGID_23_"  style="overflow:visible;fill:#FFFFFF;"/>
		<clipPath id="SVGID_24_">
			<use xlink:href="#SVGID_23_"  style="overflow:visible;"/>
		</clipPath>
		
			<rect x="290.2" y="-4.4" transform="matrix(0.2052 -0.9787 0.9787 0.2052 222.0782 306.7594)" class="st10" width="19.4" height="42.1"/>
	</g>
	<g>
		<defs>
			<rect id="SVGID_25_" x="279.6" y="30.6" width="41.4" height="11.3"/>
		</defs>
		<use xlink:href="#SVGID_25_"  style="overflow:visible;fill:#FFFFFF;"/>
		<clipPath id="SVGID_26_">
			<use xlink:href="#SVGID_25_"  style="overflow:visible;"/>
		</clipPath>
		
			<rect x="290.5" y="14.9" transform="matrix(0.2052 -0.9787 0.9787 0.2052 203.1669 322.6989)" class="st11" width="19.5" height="42.8"/>
	</g>
	<g>
		<defs>
			<rect id="SVGID_27_" x="279.6" y="50.2" width="41.4" height="11.3"/>
		</defs>
		<use xlink:href="#SVGID_27_"  style="overflow:visible;fill:#FFFFFF;"/>
		<clipPath id="SVGID_28_">
			<use xlink:href="#SVGID_27_"  style="overflow:visible;"/>
		</clipPath>
		
			<rect x="290.5" y="34.5" transform="matrix(0.2052 -0.9787 0.9787 0.2052 183.9721 338.2873)" class="st12" width="19.5" height="42.8"/>
	</g>
	<g>
		<defs>
			<path id="SVGID_29_" d="M412.9,10.2L392,47c0,0,0,0,0,0c-4.8-6.7-12.1-11.3-20.6-12.4l16.8-24.4h-21.5l-25,37.9
				c-2.5,3.7-4.1,8.2-4.6,13.2c0,0.1,0,0.3,0,0.4c0,0.3-0.1,0.7-0.1,1c0,0.6-0.1,1.3-0.1,1.9c0,7.4,2.3,13.8,6.4,18.7
				C349,90.4,357.6,95,367.3,95c10.1,0,19-4.9,24.5-12.5c1.3-1.7,2.5-3.6,3.3-5.6h-0.1h-27.2c-4.2,0-8-2.2-10.2-5.4
				c-1.1-1.6-1.8-3.5-2-5.5c0-0.4-0.1-0.9-0.1-1.3c0-0.4,0-0.9,0.1-1.3c0.2-2,0.9-3.9,2-5.5c2.2-3.3,5.9-5.4,10.2-5.4H389h6.1h0.1
				H409l24-42.2H412.9z"/>
		</defs>
		<use xlink:href="#SVGID_29_"  style="overflow:visible;fill:#FFFFFF;"/>
		<clipPath id="SVGID_30_">
			<use xlink:href="#SVGID_29_"  style="overflow:visible;"/>
		</clipPath>
		
			<rect x="333.7" y="-3.1" transform="matrix(0.2052 -0.9787 0.9787 0.2052 254.5708 418.5794)" class="st13" width="102.7" height="111.4"/>
	</g>
</g>
<g>
	<defs>
		<path id="SVGID_31_" d="M424,44v12h-10.6H407h-10.5h-0.1h-9.5h-11.8h-7.2c-4.8,0-8.6,3.9-8.6,8.6c0,4.8,3.9,8.6,8.6,8.6h7.2h11.8
			h9.5h0.1h17H424v20.1h18.9V73.3h8.2V56h-8.2V44H424z"/>
	</defs>
	<use xlink:href="#SVGID_31_"  style="overflow:visible;fill:#FFFFFF;"/>
	<clipPath id="SVGID_32_">
		<use xlink:href="#SVGID_31_"  style="overflow:visible;"/>
	</clipPath>
	
		<rect x="371.6" y="18.7" transform="matrix(0.2052 -0.9787 0.9787 0.2052 254.8389 451.1135)" class="st14" width="67.1" height="100"/>
</g>
<path class="st15" d="M31.5,82.2c-0.1,0.1-0.1,0.1-0.2,0.2c-0.1,0-0.1,0.1-0.2,0.1c-0.1,0-0.2,0-0.3-0.1s-0.3-0.2-0.5-0.3
	s-0.4-0.2-0.7-0.3c-0.3-0.1-0.6-0.1-1-0.1c-0.4,0-0.7,0-1,0.1c-0.3,0.1-0.5,0.2-0.7,0.4c-0.2,0.2-0.3,0.4-0.4,0.6s-0.2,0.5-0.2,0.7
	c0,0.3,0.1,0.6,0.3,0.8c0.2,0.2,0.4,0.4,0.7,0.6c0.3,0.2,0.6,0.3,1,0.4s0.7,0.2,1.1,0.4c0.4,0.1,0.8,0.3,1.1,0.4
	c0.4,0.2,0.7,0.4,1,0.6c0.3,0.2,0.5,0.5,0.7,0.9c0.2,0.3,0.3,0.8,0.3,1.3c0,0.5-0.1,1-0.3,1.5c-0.2,0.5-0.5,0.9-0.8,1.2
	s-0.8,0.6-1.3,0.8s-1.1,0.3-1.8,0.3c-0.8,0-1.6-0.1-2.2-0.4s-1.3-0.7-1.7-1.2l0.5-0.8c0-0.1,0.1-0.1,0.2-0.2c0.1,0,0.1-0.1,0.2-0.1
	c0.1,0,0.3,0.1,0.4,0.2c0.2,0.1,0.4,0.3,0.6,0.4c0.2,0.2,0.5,0.3,0.9,0.4c0.3,0.1,0.8,0.2,1.2,0.2c0.4,0,0.8-0.1,1.1-0.2
	c0.3-0.1,0.6-0.3,0.8-0.5s0.4-0.4,0.5-0.7c0.1-0.3,0.2-0.6,0.2-0.9c0-0.4-0.1-0.7-0.3-0.9c-0.2-0.2-0.4-0.4-0.7-0.6
	c-0.3-0.2-0.6-0.3-1-0.4c-0.4-0.1-0.7-0.2-1.1-0.3c-0.4-0.1-0.8-0.3-1.1-0.4c-0.4-0.2-0.7-0.4-1-0.6c-0.3-0.2-0.5-0.5-0.7-0.9
	c-0.2-0.4-0.3-0.8-0.3-1.4c0-0.4,0.1-0.8,0.3-1.2c0.2-0.4,0.4-0.8,0.8-1.1c0.3-0.3,0.7-0.6,1.2-0.7c0.5-0.2,1-0.3,1.7-0.3
	c0.7,0,1.4,0.1,1.9,0.3c0.6,0.2,1.1,0.5,1.5,0.9L31.5,82.2z"/>
<path class="st15" d="M41.3,88.5c0.1,0.2,0.1,0.3,0.2,0.5c0.1-0.2,0.1-0.3,0.2-0.5c0.1-0.1,0.1-0.3,0.2-0.4l4.3-7.5
	c0.1-0.1,0.2-0.2,0.2-0.2s0.2,0,0.4,0h1.3v12.2h-1.5v-9c0-0.1,0-0.2,0-0.4s0-0.3,0-0.4l-4.3,7.6c-0.1,0.3-0.4,0.4-0.6,0.4h-0.2
	c-0.3,0-0.5-0.1-0.6-0.4l-4.4-7.6c0,0.1,0,0.3,0,0.4s0,0.3,0,0.4v9h-1.5V80.3h1.3c0.2,0,0.3,0,0.4,0s0.2,0.1,0.2,0.2l4.4,7.5
	C41.2,88.2,41.3,88.4,41.3,88.5z"/>
<path class="st15" d="M62.1,92.5h-1.3c-0.2,0-0.3,0-0.4-0.1s-0.2-0.2-0.2-0.3L59,89.2h-5.7l-1.2,2.9c0,0.1-0.1,0.2-0.2,0.3
	s-0.2,0.1-0.4,0.1h-1.3l5.1-12.2H57L62.1,92.5z M53.8,88h4.7l-2-5c-0.1-0.3-0.3-0.7-0.4-1.1c-0.1,0.2-0.1,0.4-0.2,0.6
	s-0.1,0.4-0.2,0.5L53.8,88z"/>
<path class="st15" d="M66.1,87.4v5.1h-1.7V80.3H68c0.8,0,1.5,0.1,2.1,0.2c0.6,0.2,1.1,0.4,1.4,0.7c0.4,0.3,0.7,0.7,0.8,1.1
	c0.2,0.4,0.3,0.9,0.3,1.4c0,0.4-0.1,0.8-0.2,1.2s-0.3,0.7-0.6,1c-0.3,0.3-0.6,0.6-1,0.8c-0.4,0.2-0.8,0.4-1.3,0.5
	c0.2,0.1,0.4,0.3,0.6,0.5l3.7,4.8h-1.5c-0.3,0-0.5-0.1-0.7-0.3l-3.3-4.4c-0.1-0.1-0.2-0.2-0.3-0.3c-0.1-0.1-0.3-0.1-0.5-0.1H66.1z
	 M66.1,86.2h1.8c0.5,0,0.9-0.1,1.3-0.2c0.4-0.1,0.7-0.3,1-0.5c0.3-0.2,0.4-0.5,0.6-0.8c0.1-0.3,0.2-0.6,0.2-1c0-0.7-0.2-1.3-0.7-1.6
	S69,81.6,68,81.6h-1.9V86.2z"/>
<path class="st15" d="M84.3,80.3v1.4h-4.1v10.8h-1.7V81.7h-4.1v-1.4H84.3z"/>
<path class="st15" d="M92.5,87.9v4.6h-1.7V80.3h3.7c0.8,0,1.5,0.1,2.1,0.3c0.6,0.2,1.1,0.4,1.5,0.8c0.4,0.3,0.7,0.7,0.9,1.2
	s0.3,1,0.3,1.6c0,0.6-0.1,1.1-0.3,1.6c-0.2,0.5-0.5,0.9-0.9,1.2s-0.9,0.6-1.5,0.8c-0.6,0.2-1.3,0.3-2,0.3H92.5z M92.5,86.6h2
	c0.5,0,0.9-0.1,1.3-0.2c0.4-0.1,0.7-0.3,0.9-0.5c0.3-0.2,0.4-0.5,0.6-0.8c0.1-0.3,0.2-0.7,0.2-1c0-0.8-0.2-1.4-0.7-1.8
	s-1.3-0.7-2.3-0.7h-2V86.6z"/>
<path class="st15" d="M109.7,80.3v1.3h-6.1v4h4.9V87h-4.9v4.2h6.1v1.3h-7.8V80.3H109.7z"/>
<path class="st15" d="M124.5,86.4c0,0.9-0.2,1.8-0.5,2.5c-0.3,0.8-0.7,1.4-1.3,2c-0.5,0.5-1.2,1-2,1.3c-0.8,0.3-1.6,0.5-2.6,0.5
	s-1.8-0.2-2.5-0.5s-1.4-0.7-2-1.3s-1-1.2-1.3-2c-0.3-0.8-0.5-1.6-0.5-2.5s0.1-1.8,0.5-2.5c0.3-0.8,0.7-1.4,1.3-2
	c0.5-0.6,1.2-1,2-1.3s1.6-0.5,2.5-0.5s1.8,0.2,2.6,0.5c0.8,0.3,1.4,0.7,2,1.3c0.5,0.6,1,1.2,1.3,2C124.3,84.7,124.5,85.5,124.5,86.4
	z M122.7,86.4c0-0.7-0.1-1.4-0.3-2c-0.2-0.6-0.5-1.1-0.9-1.5s-0.9-0.7-1.4-0.9c-0.6-0.2-1.2-0.3-1.9-0.3c-0.7,0-1.3,0.1-1.8,0.3
	c-0.6,0.2-1,0.5-1.4,0.9c-0.4,0.4-0.7,0.9-0.9,1.5c-0.2,0.6-0.3,1.3-0.3,2s0.1,1.4,0.3,2c0.2,0.6,0.5,1.1,0.9,1.5
	c0.4,0.4,0.9,0.7,1.4,0.9c0.6,0.2,1.2,0.3,1.8,0.3c0.7,0,1.3-0.1,1.9-0.3c0.6-0.2,1-0.5,1.4-0.9s0.7-0.9,0.9-1.5
	C122.6,87.8,122.7,87.2,122.7,86.4z"/>
<path class="st15" d="M129.2,87.9v4.6h-1.7V80.3h3.7c0.8,0,1.5,0.1,2.1,0.3c0.6,0.2,1.1,0.4,1.5,0.8c0.4,0.3,0.7,0.7,0.9,1.2
	s0.3,1,0.3,1.6c0,0.6-0.1,1.1-0.3,1.6c-0.2,0.5-0.5,0.9-0.9,1.2s-0.9,0.6-1.5,0.8c-0.6,0.2-1.3,0.3-2,0.3H129.2z M129.2,86.6h2
	c0.5,0,0.9-0.1,1.3-0.2c0.4-0.1,0.7-0.3,0.9-0.5c0.3-0.2,0.4-0.5,0.6-0.8c0.1-0.3,0.2-0.7,0.2-1c0-0.8-0.2-1.4-0.7-1.8
	s-1.3-0.7-2.3-0.7h-2V86.6z"/>
<path class="st15" d="M140.4,91.1h5.5v1.4h-7.2V80.3h1.7V91.1z"/>
<path class="st15" d="M156.1,80.3v1.3H150v4h4.9V87H150v4.2h6.1v1.3h-7.8V80.3H156.1z"/>
<path class="st15" d="M158.4,91.4c0-0.1,0-0.3,0.1-0.4c0-0.1,0.1-0.2,0.2-0.3c0.1-0.1,0.2-0.2,0.3-0.2s0.3-0.1,0.4-0.1
	c0.2,0,0.3,0,0.5,0.1c0.1,0.1,0.3,0.1,0.3,0.3s0.2,0.2,0.2,0.4c0,0.1,0.1,0.3,0.1,0.5c0,0.3,0,0.5-0.1,0.8c-0.1,0.3-0.2,0.5-0.3,0.8
	c-0.1,0.3-0.3,0.5-0.5,0.8c-0.2,0.3-0.4,0.5-0.7,0.7l-0.3-0.2c-0.1-0.1-0.1-0.1-0.1-0.2c0-0.1,0-0.2,0.1-0.2
	c0.1-0.1,0.1-0.1,0.2-0.3c0.1-0.1,0.2-0.2,0.3-0.4s0.2-0.3,0.3-0.5c0.1-0.2,0.1-0.3,0.2-0.5h-0.1c-0.2,0-0.3,0-0.4-0.1
	c-0.1-0.1-0.2-0.1-0.3-0.2c-0.1-0.1-0.2-0.2-0.2-0.3C158.4,91.7,158.4,91.6,158.4,91.4z"/>
<path class="st15" d="M173,91.3c0.3,0,0.7,0,0.9,0s0.6-0.1,0.8-0.1c0.3-0.1,0.5-0.1,0.7-0.2s0.4-0.2,0.7-0.3v-2.7h-2
	c-0.1,0-0.2,0-0.3-0.1c-0.1-0.1-0.1-0.1-0.1-0.2v-0.9h3.9v4.7c-0.3,0.2-0.6,0.4-1,0.6s-0.7,0.3-1.1,0.4c-0.4,0.1-0.8,0.2-1.3,0.2
	c-0.4,0.1-0.9,0.1-1.5,0.1c-0.9,0-1.8-0.2-2.5-0.5c-0.8-0.3-1.4-0.7-2-1.3c-0.6-0.5-1-1.2-1.3-2s-0.5-1.6-0.5-2.5
	c0-0.9,0.2-1.8,0.5-2.5c0.3-0.8,0.7-1.4,1.3-2c0.6-0.5,1.2-1,2-1.3c0.8-0.3,1.7-0.5,2.7-0.5c0.5,0,1,0,1.4,0.1
	c0.4,0.1,0.8,0.2,1.2,0.3c0.4,0.1,0.7,0.3,1,0.5c0.3,0.2,0.6,0.4,0.9,0.6l-0.5,0.7c-0.1,0.2-0.2,0.2-0.4,0.2c-0.1,0-0.2,0-0.3-0.1
	c-0.1-0.1-0.3-0.2-0.5-0.3s-0.4-0.2-0.7-0.3c-0.3-0.1-0.6-0.2-0.9-0.3c-0.4-0.1-0.8-0.1-1.3-0.1c-0.7,0-1.4,0.1-1.9,0.3
	s-1.1,0.5-1.5,1c-0.4,0.4-0.7,0.9-0.9,1.5c-0.2,0.6-0.3,1.3-0.3,2c0,0.8,0.1,1.5,0.3,2.1s0.5,1.1,1,1.5c0.4,0.4,0.9,0.7,1.5,1
	C171.7,91.2,172.3,91.3,173,91.3z"/>
<path class="st15" d="M182.7,87.4v5.1H181V80.3h3.6c0.8,0,1.5,0.1,2.1,0.2c0.6,0.2,1.1,0.4,1.4,0.7c0.4,0.3,0.7,0.7,0.8,1.1
	c0.2,0.4,0.3,0.9,0.3,1.4c0,0.4-0.1,0.8-0.2,1.2s-0.3,0.7-0.6,1c-0.3,0.3-0.6,0.6-1,0.8c-0.4,0.2-0.8,0.4-1.3,0.5
	c0.2,0.1,0.4,0.3,0.6,0.5l3.7,4.8h-1.5c-0.3,0-0.5-0.1-0.7-0.3l-3.3-4.4c-0.1-0.1-0.2-0.2-0.3-0.3c-0.1-0.1-0.3-0.1-0.5-0.1H182.7z
	 M182.7,86.2h1.8c0.5,0,0.9-0.1,1.3-0.2c0.4-0.1,0.7-0.3,1-0.5c0.3-0.2,0.4-0.5,0.6-0.8c0.1-0.3,0.2-0.6,0.2-1
	c0-0.7-0.2-1.3-0.7-1.6s-1.2-0.6-2.2-0.6h-1.9V86.2z"/>
<path class="st15" d="M200.6,80.3v1.3h-6.1v4h4.9V87h-4.9v4.2h6.1v1.3h-7.8V80.3H200.6z"/>
<path class="st15" d="M214,92.5h-1.3c-0.2,0-0.3,0-0.4-0.1s-0.2-0.2-0.2-0.3l-1.2-2.9h-5.7l-1.2,2.9c0,0.1-0.1,0.2-0.2,0.3
	s-0.2,0.1-0.4,0.1h-1.3l5.1-12.2h1.7L214,92.5z M205.7,88h4.7l-2-5c-0.1-0.3-0.3-0.7-0.4-1.1c-0.1,0.2-0.1,0.4-0.2,0.6
	s-0.1,0.4-0.2,0.5L205.7,88z"/>
<path class="st15" d="M223.6,80.3v1.4h-4.1v10.8h-1.7V81.7h-4.1v-1.4H223.6z"/>
<path class="st15" d="M236.3,82.2c-0.1,0.1-0.1,0.1-0.2,0.2c-0.1,0-0.1,0.1-0.2,0.1c-0.1,0-0.2,0-0.3-0.1c-0.1-0.1-0.3-0.2-0.5-0.3
	c-0.2-0.1-0.4-0.2-0.7-0.3c-0.3-0.1-0.6-0.1-1-0.1c-0.4,0-0.7,0-1,0.1c-0.3,0.1-0.5,0.2-0.7,0.4c-0.2,0.2-0.3,0.4-0.4,0.6
	c-0.1,0.2-0.2,0.5-0.2,0.7c0,0.3,0.1,0.6,0.3,0.8c0.2,0.2,0.4,0.4,0.7,0.6c0.3,0.2,0.6,0.3,1,0.4c0.4,0.1,0.7,0.2,1.1,0.4
	s0.8,0.3,1.1,0.4c0.4,0.2,0.7,0.4,1,0.6c0.3,0.2,0.5,0.5,0.7,0.9c0.2,0.3,0.3,0.8,0.3,1.3c0,0.5-0.1,1-0.3,1.5s-0.5,0.9-0.8,1.2
	c-0.4,0.3-0.8,0.6-1.3,0.8c-0.5,0.2-1.1,0.3-1.8,0.3c-0.8,0-1.6-0.1-2.2-0.4s-1.3-0.7-1.7-1.2l0.5-0.8c0-0.1,0.1-0.1,0.2-0.2
	c0.1,0,0.1-0.1,0.2-0.1c0.1,0,0.3,0.1,0.4,0.2c0.2,0.1,0.4,0.3,0.6,0.4c0.2,0.2,0.5,0.3,0.9,0.4c0.3,0.1,0.8,0.2,1.2,0.2
	c0.4,0,0.8-0.1,1.1-0.2c0.3-0.1,0.6-0.3,0.8-0.5c0.2-0.2,0.4-0.4,0.5-0.7c0.1-0.3,0.2-0.6,0.2-0.9c0-0.4-0.1-0.7-0.3-0.9
	c-0.2-0.2-0.4-0.4-0.7-0.6c-0.3-0.2-0.6-0.3-1-0.4s-0.7-0.2-1.1-0.3c-0.4-0.1-0.8-0.3-1.1-0.4c-0.4-0.2-0.7-0.4-1-0.6
	c-0.3-0.2-0.5-0.5-0.7-0.9c-0.2-0.4-0.3-0.8-0.3-1.4c0-0.4,0.1-0.8,0.3-1.2s0.4-0.8,0.8-1.1s0.7-0.6,1.2-0.7c0.5-0.2,1-0.3,1.7-0.3
	c0.7,0,1.4,0.1,1.9,0.3c0.6,0.2,1.1,0.5,1.5,0.9L236.3,82.2z"/>
<path class="st15" d="M251.5,86.4c0,0.9-0.2,1.8-0.5,2.5s-0.7,1.4-1.3,2c-0.5,0.5-1.2,1-2,1.3c-0.8,0.3-1.6,0.5-2.5,0.5
	c-0.9,0-1.8-0.2-2.5-0.5c-0.8-0.3-1.4-0.7-2-1.3s-1-1.2-1.3-2c-0.3-0.8-0.5-1.6-0.5-2.5s0.2-1.8,0.5-2.5c0.3-0.8,0.7-1.4,1.3-2
	c0.5-0.6,1.2-1,2-1.3c0.8-0.3,1.6-0.5,2.5-0.5c0.9,0,1.8,0.2,2.5,0.5c0.8,0.3,1.4,0.7,2,1.3c0.5,0.6,1,1.2,1.3,2
	S251.5,85.5,251.5,86.4z M249.8,86.4c0-0.7-0.1-1.4-0.3-2c-0.2-0.6-0.5-1.1-0.9-1.5s-0.9-0.7-1.4-0.9c-0.6-0.2-1.2-0.3-1.9-0.3
	c-0.7,0-1.3,0.1-1.8,0.3c-0.6,0.2-1,0.5-1.4,0.9c-0.4,0.4-0.7,0.9-0.9,1.5s-0.3,1.3-0.3,2s0.1,1.4,0.3,2c0.2,0.6,0.5,1.1,0.9,1.5
	c0.4,0.4,0.9,0.7,1.4,0.9c0.6,0.2,1.2,0.3,1.8,0.3c0.7,0,1.3-0.1,1.9-0.3c0.6-0.2,1-0.5,1.4-0.9s0.7-0.9,0.9-1.5
	C249.7,87.8,249.8,87.2,249.8,86.4z"/>
<path class="st15" d="M256.1,91.1h5.5v1.4h-7.2V80.3h1.7V91.1z"/>
<path class="st15" d="M268.9,91.2c0.5,0,1-0.1,1.4-0.3c0.4-0.2,0.8-0.4,1-0.7c0.3-0.3,0.5-0.7,0.7-1.1c0.2-0.4,0.2-0.9,0.2-1.4v-7.4
	h1.7v7.4c0,0.7-0.1,1.4-0.3,2c-0.2,0.6-0.6,1.1-1,1.6c-0.4,0.4-1,0.8-1.6,1c-0.6,0.2-1.3,0.4-2.1,0.4c-0.8,0-1.5-0.1-2.1-0.4
	c-0.6-0.2-1.2-0.6-1.6-1c-0.4-0.4-0.8-1-1-1.6c-0.2-0.6-0.3-1.3-0.3-2v-7.4h1.7v7.4c0,0.5,0.1,1,0.2,1.4s0.4,0.8,0.7,1.1
	c0.3,0.3,0.6,0.5,1.1,0.7C267.9,91.1,268.4,91.2,268.9,91.2z"/>
<path class="st15" d="M286.1,80.3v1.4H282v10.8h-1.7V81.7h-4.1v-1.4H286.1z"/>
<path class="st15" d="M290.4,92.5h-1.7V80.3h1.7V92.5z"/>
<path class="st15" d="M306.1,86.4c0,0.9-0.2,1.8-0.5,2.5s-0.7,1.4-1.3,2c-0.5,0.5-1.2,1-2,1.3c-0.8,0.3-1.6,0.5-2.5,0.5
	c-0.9,0-1.8-0.2-2.5-0.5c-0.8-0.3-1.4-0.7-2-1.3s-1-1.2-1.3-2c-0.3-0.8-0.5-1.6-0.5-2.5s0.2-1.8,0.5-2.5c0.3-0.8,0.7-1.4,1.3-2
	c0.5-0.6,1.2-1,2-1.3c0.8-0.3,1.6-0.5,2.5-0.5c0.9,0,1.8,0.2,2.5,0.5c0.8,0.3,1.4,0.7,2,1.3c0.5,0.6,1,1.2,1.3,2
	S306.1,85.5,306.1,86.4z M304.4,86.4c0-0.7-0.1-1.4-0.3-2c-0.2-0.6-0.5-1.1-0.9-1.5s-0.9-0.7-1.4-0.9c-0.6-0.2-1.2-0.3-1.9-0.3
	c-0.7,0-1.3,0.1-1.8,0.3c-0.6,0.2-1,0.5-1.4,0.9c-0.4,0.4-0.7,0.9-0.9,1.5s-0.3,1.3-0.3,2s0.1,1.4,0.3,2c0.2,0.6,0.5,1.1,0.9,1.5
	c0.4,0.4,0.9,0.7,1.4,0.9c0.6,0.2,1.2,0.3,1.8,0.3c0.7,0,1.3-0.1,1.9-0.3c0.6-0.2,1-0.5,1.4-0.9s0.7-0.9,0.9-1.5
	C304.3,87.8,304.4,87.2,304.4,86.4z"/>
<path class="st15" d="M310.2,80.4c0.1,0,0.2,0.1,0.3,0.2l7.3,9.2c0-0.1,0-0.3,0-0.4s0-0.3,0-0.4v-8.6h1.5v12.2h-0.9
	c-0.1,0-0.2,0-0.3-0.1c-0.1,0-0.2-0.1-0.3-0.2l-7.3-9.2c0,0.1,0,0.3,0,0.4c0,0.1,0,0.3,0,0.4v8.7H309V80.3h0.9
	C310,80.3,310.2,80.3,310.2,80.4z"/>
</svg>
